PathFileType	4	(X/Y/Z)	Kaydara																																																																																																																																																																																																																												
DataRate	CameraRate	NumFrames	NumMarkers	Units	OrigDataRate	OrigDataStartFrame	OrigNumFrames																																																																																																																																																																																																																								
60	60	4	74	mm	60	1441	294																																																																																																																																																																																																																								
Frame#	Time	N_lasi			N_rasi			N_rpsi			N_lpsi			N_fneck			N_bneck			N_fhead			N_rhead			N_lhead			N_rshld			N_relbtop			N_relbext			N_relblow			N_rwrext			N_rwrtop			N_rwrlow			N_lshld			N_lelblow			N_lelbtop			N_lwrext			N_lwrtop			N_lwrlow			N_rtopleg			N_ltopleg			N_rkneefr			N_rkneebk			N_rkneeis			N_lkneefr			N_lknssbk			N_lkneeis			N_rankfr			N_rankis			N_rankbk			N_lankfr			N_lankbk			N_lankis			D_lasi			D_rasi			D_lpsi			D_fneck			D_bneck			D_fhead			D_rhead			D_lhead			D_rshld			D_relbtop			D_relbext			D_relblow			D_rwrext			D_rwrtop			D_rwrlow			D_lshld			D_lelbext			D_lelblow			D_lelbtop			D_lwrext			D_lwrtop			D_lwrlow			D_rtopleg			D_ltopleg			D_rkneefr			D_rkneebk			D_rkneeis			D_lkneefr			D_lknssbk			D_lkneeis			D_rankfr			D_rankis			D_rankbk			D_lankfr			D_lankbk			D_lankis			D_rpsi			N_lelbext		
		X1	Y1	Z1	X2	Y2	Z2	X3	Y3	Z3	X4	Y4	Z4	X5	Y5	Z5	X6	Y6	Z6	X7	Y7	Z7	X8	Y8	Z8	X9	Y9	Z9	X10	Y10	Z10	X11	Y11	Z11	X12	Y12	Z12	X13	Y13	Z13	X14	Y14	Z14	X15	Y15	Z15	X16	Y16	Z16	X17	Y17	Z17	X18	Y18	Z18	X19	Y19	Z19	X20	Y20	Z20	X21	Y21	Z21	X22	Y22	Z22	X23	Y23	Z23	X24	Y24	Z24	X25	Y25	Z25	X26	Y26	Z26	X27	Y27	Z27	X28	Y28	Z28	X29	Y29	Z29	X30	Y30	Z30	X31	Y31	Z31	X32	Y32	Z32	X33	Y33	Z33	X34	Y34	Z34	X35	Y35	Z35	X36	Y36	Z36	X37	Y37	Z37	X38	Y38	Z38	X39	Y39	Z39	X40	Y40	Z40	X41	Y41	Z41	X42	Y42	Z42	X43	Y43	Z43	X44	Y44	Z44	X45	Y45	Z45	X46	Y46	Z46	X47	Y47	Z47	X48	Y48	Z48	X49	Y49	Z49	X50	Y50	Z50	X51	Y51	Z51	X52	Y52	Z52	X53	Y53	Z53	X54	Y54	Z54	X55	Y55	Z55	X56	Y56	Z56	X57	Y57	Z57	X58	Y58	Z58	X59	Y59	Z59	X60	Y60	Z60	X61	Y61	Z61	X62	Y62	Z62	X63	Y63	Z63	X64	Y64	Z64	X65	Y65	Z65	X66	Y66	Z66	X67	Y67	Z67	X68	Y68	Z68	X69	Y69	Z69	X70	Y70	Z70	X71	Y71	Z71	X72	Y72	Z72	X73	Y73	Z73	X74	Y74	Z74
																																																																																																																																																																																																																															
184	24	-539.04228	1243.98773	-85.59231	-517.4279	1250.91003	-317.37078	-234.52087	1218.98224	-361.82426	-277.98788	1222.93579	-4.76565	-381.32153	1609.43176	-184.22203	-242.63422	1665.44434	-197.05074	-436.20007	1808.56598	-197.1443	-246.78438	1770.29831	-258.99532	-293.20612	1777.40784	-109.12169	-281.14647	1539.06952	-448.02223	-226.73285	1229.03091	-468.7867	-303.40851	1145.11322	-457.82135	-317.15965	1228.82286	-467.56702	-247.19847	908.57201	-485.24654	-292.95317	898.18466	-495.87021	-321.04748	912.82471	-459.69532	-258.09917	1611.04202	6.61774	-260.57226	1593.43201	262.50416	-275.88686	1511.91605	294.77043	-351.98086	1832.75696	391.72451	-309.92716	1844.32129	411.18206	-280.53753	1837.69775	364.68834	-416.60454	1044.63768	-444.38251	-377.12185	1018.29117	39.81397	-430.90172	561.90933	-262.46822	-324.60171	578.65002	-330.4874	-369.07394	564.81163	-169.30182	-382.20222	539.52843	-103.64636	-256.55851	556.84395	-43.38032	-257.09152	547.73697	-193.16395	-296.62785	139.52176	-271.87944	-298.62448	154.50519	-192.02682	-216.78904	142.06297	-216.76449	-332.57221	193.18958	-119.39268	-259.46234	186.39307	-76.54838	-295.46234	165.39307	-160.54838	-468.74153	1047.63748	1738.07022	-430.06119	1061.36299	1450.98831	-273.07871	1139.77005	1743.52921	-405.41351	1570.0351	1598.08624	-262.89799	1598.05313	1608.86948	-455.40245	1769.34357	1602.85187	-289.86536	1736.21857	1527.96265	-300.45097	1733.88535	1683.17276	-299.25905	1597.36435	1514.93195	-439.74926	1738.64273	1321.04294	-477.28996	1742.60742	1385.45151	-378.39581	1774.90646	1366.37222	-499.08272	2007.43195	1328.19641	-462.6416	2012.95715	1371.57578	-504.7559	1997.23419	1403.87268	-302.99517	1586.03592	1706.67282	-459.72397	1750.77423	1804.00818	-363.37269	1763.50845	1830.24429	-427.54967	1750.61462	1877.28027	-465.18837	2013.08502	1833.28003	-446.09764	2008.87299	1791.5004	-481.20369	1990.62241	1763.5614	-334.34502	1005.93002	1408.29895	-327.11029	1012.7655	1807.86392	-372.17972	455.65689	1450.51056	-272.28592	491.52493	1422.97806	-280.15585	458.66844	1543.60046	-358.79772	448.78731	1770.11185	-246.63498	487.07378	1787.42126	-316.89167	444.66125	1678.974	-323.44791	130.75877	1417.91138	-294.69522	126.8175	1482.34528	-243.17078	127.90919	1418.14865	-323.8847	135.22901	1791.79688	-251.45403	125.22663	1806.59714	-293.96662	124.54066	1732.81448	-245.89308	1152.23228	1527.14691	-351.89255	1554.67575	273.22275
185	24.017	-539.06952	1244.01001	-85.333	-517.27264	1250.97595	-317.12101	-234.32537	1218.85841	-361.5057	-277.93009	1222.86926	-4.68647	-381.20159	1609.24332	-184.11671	-242.51432	1665.25604	-196.9454	-436.3744	1808.22571	-197.06919	-246.89259	1770.41168	-258.95346	-293.37692	1777.37015	-108.97268	-280.97607	1538.69614	-447.91477	-226.34695	1228.75137	-468.28087	-302.93583	1144.79286	-457.43313	-316.91631	1228.56888	-467.3996	-246.77116	908.33786	-484.74407	-292.49435	897.9007	-495.58735	-320.60799	912.50603	-459.543	-258.10318	1610.44159	6.79623	-260.27975	1593.9592	262.46552	-276.28403	1512.23495	295.49885	-351.16894	1835.09537	384.50386	-309.1214	1846.67831	404.07024	-279.36157	1838.7851	358.06217	-416.45439	1044.60251	-444.13158	-377.07054	1018.33687	39.9601	-430.88669	561.90773	-262.36843	-324.58202	578.61885	-330.36907	-369.01665	564.78687	-169.21284	-382.20547	539.53175	-103.5621	-256.53387	556.80267	-43.29349	-257.08731	547.70794	-193.08828	-296.61749	139.52042	-271.86029	-298.62873	154.45852	-191.98582	-216.79104	142.00691	-216.71438	-332.55138	193.16706	-119.41557	-259.43283	186.39309	-76.53426	-295.43283	165.39309	-160.53426	-468.70979	1047.48451	1738.3847	-430.00774	1061.2986	1451.34354	-273.01111	1139.7316	1743.66135	-405.69511	1570.03555	1598.64822	-263.25251	1598.08899	1609.33258	-455.93708	1769.31396	1603.48801	-290.31616	1736.38245	1528.45566	-300.81699	1733.91266	1683.74481	-299.65733	1597.3317	1515.37537	-439.56448	1738.14362	1320.0444	-477.79152	1742.31323	1384.26346	-378.49213	1774.7345	1365.44647	-499.24747	2006.84326	1324.43222	-463.46447	2012.7951	1368.36014	-506.10725	1997.22183	1400.13672	-303.35968	1586.11694	1707.48917	-459.8772	1750.51773	1806.55197	-363.38779	1763.0896	1831.54587	-426.77082	1749.8497	1879.50256	-465.35961	2012.59186	1837.82822	-446.50391	2008.54965	1795.89539	-481.91887	1990.65338	1768.1842	-334.35249	1005.95627	1408.4758	-327.01118	1012.76291	1807.9686	-372.04994	455.66929	1450.48737	-272.29809	491.54179	1422.99911	-280.0938	458.7146	1543.6496	-358.74264	448.77495	1770.20645	-246.60378	487.05784	1787.4704	-316.82587	444.62044	1679.03137	-323.46737	130.77762	1417.89322	-294.71142	126.82425	1482.33597	-243.17333	127.93303	1418.14178	-323.86806	135.2035	1791.81793	-251.43614	125.20922	1806.58432	-293.95681	124.52606	1732.86957	-245.88055	1152.25319	1527.19299	-351.91456	1555.91873	273.8232
186	24.033	-539.00936	1244.11217	-85.06933	-517.14931	1250.91499	-316.87714	-234.12247	1218.74847	-361.27903	-277.77388	1222.8038	-4.63471	-381.11038	1609.15283	-184.04921	-242.42308	1665.16556	-196.87792	-436.47762	1807.96768	-196.999	-246.76954	1770.57037	-258.79269	-293.44568	1777.42538	-108.91366	-280.81612	1538.34122	-447.59586	-225.96851	1228.50967	-467.90691	-302.39828	1144.44992	-457.05009	-316.53585	1228.23189	-467.1106	-246.20644	908.02505	-484.3026	-291.85444	897.59644	-495.26726	-320.14072	912.14058	-459.33144	-258.11211	1610.34363	7.0917	-260.1516	1594.26636	262.42838	-276.85991	1512.47498	296.08177	-350.26821	1836.79443	378.77743	-308.07709	1848.84613	398.02395	-278.34072	1839.52499	352.19727	-416.28555	1044.45572	-443.8089	-376.97556	1018.41125	40.06712	-430.87627	561.89705	-262.25496	-324.55513	578.59001	-330.24986	-368.97987	564.79614	-169.09098	-382.12856	539.52122	-103.47408	-256.48932	556.74412	-43.22334	-257.0558	547.68719	-192.99629	-296.6444	139.49678	-271.83863	-298.62316	154.43275	-191.91116	-216.79605	141.98917	-216.67006	-332.54204	193.16542	-119.37414	-259.42913	186.34632	-76.52636	-295.42913	165.34632	-160.52636	-468.70102	1047.19536	1738.57193	-429.98734	1061.21338	1451.71768	-272.95879	1139.68277	1743.79959	-405.88215	1569.9321	1599.00238	-263.44591	1598.237	1609.49646	-456.62529	1769.1864	1604.14536	-290.64709	1736.49139	1527.52487	-301.12854	1733.862	1684.41696	-300.00267	1597.27234	1515.28168	-439.21539	1737.65182	1319.07364	-478.14758	1742.00851	1382.9187	-378.58074	1774.56177	1364.63852	-499.51469	2005.94452	1320.4361	-464.32434	2012.27356	1364.74197	-507.19578	1996.96564	1395.93521	-303.74878	1585.952	1707.90436	-460.03498	1750.21347	1809.77386	-363.71151	1762.83997	1832.86774	-426.11183	1749.14276	1882.22946	-465.20554	2012.07458	1842.93777	-446.884	2008.19702	1801.26022	-482.75616	1990.65231	1773.64761	-334.40025	1005.9597	1408.64929	-326.89545	1012.77313	1808.18207	-372.06192	455.67318	1450.52856	-272.32557	491.53343	1423.07602	-280.09163	458.68305	1543.65311	-358.67863	448.78582	1770.25558	-246.57528	487.03365	1787.55463	-316.74948	444.62887	1679.06647	-323.46775	130.79123	1417.91809	-294.69276	126.88255	1482.36176	-243.17307	127.94551	1418.13919	-323.85368	135.19145	1791.8721	-251.47528	125.16155	1806.58508	-293.93724	124.5299	1732.86453	-245.85722	1152.32254	1527.34909	-352.15324	1557.22427	274.15596
187	24.05	-538.92273	1244.16687	-84.86202	-517.09549	1250.8326	-316.70446	-233.94499	1218.71719	-361.17302	-277.59308	1222.66678	-4.54445	-381.06354	1609.13345	-183.97644	-242.37623	1665.14618	-196.80515	-436.61846	1807.75986	-196.95229	-246.84807	1770.67169	-258.7146	-293.46195	1777.42981	-108.91625	-280.72029	1538.15567	-447.66388	-225.74581	1228.23624	-467.58408	-301.97521	1144.10248	-456.68156	-316.2286	1227.91763	-466.79958	-245.71705	907.74651	-483.85342	-291.39122	897.34711	-495.05917	-319.86557	911.90239	-459.23069	-258.279	1610.19623	7.237	-259.9999	1594.76547	262.10318	-277.60538	1512.98782	296.29812	-349.19437	1838.23318	375.4628	-307.09082	1850.7074	393.92151	-278.06215	1840.33493	347.8315	-416.15822	1044.30107	-443.41621	-376.80393	1018.47282	40.15364	-430.89367	561.89392	-262.12942	-324.59816	578.55	-330.15797	-368.93444	564.77982	-168.99805	-382.09652	539.53629	-103.39057	-256.42862	556.70036	-43.16564	-257.00603	547.66293	-192.93219	-296.66872	139.48956	-271.83001	-298.62013	154.42407	-191.88393	-216.82955	141.96841	-216.63858	-332.50793	193.17017	-119.37849	-259.41431	186.33038	-76.54905	-295.41431	165.33038	-160.54905	-468.68938	1046.93886	1738.86093	-429.99523	1061.10435	1452.00775	-272.91922	1139.65591	1743.98804	-406.16287	1569.92996	1599.29077	-263.61547	1598.36639	1609.63562	-456.95896	1769.08401	1605.06485	-291.18801	1737.03918	1529.26361	-301.2369	1733.72894	1684.83459	-300.83939	1597.08221	1515.28793	-438.65379	1736.73996	1317.60391	-478.03276	1741.51215	1381.02005	-378.66196	1774.31198	1363.5553	-499.68185	2004.75845	1315.60669	-465.18093	2011.707	1360.49591	-508.57517	1996.59561	1391.46698	-304.14326	1585.74783	1708.04108	-460.08038	1749.72916	1813.59604	-363.80802	1762.76886	1834.78836	-425.22755	1748.22098	1885.71671	-465.07618	2011.20728	1848.83072	-447.54704	2007.75848	1807.35733	-483.77861	1990.38498	1779.84161	-334.43054	1005.9745	1408.77151	-326.80241	1012.72209	1808.35297	-372.06238	455.66826	1450.6105	-272.34457	491.55903	1423.11523	-280.01417	458.68732	1543.70941	-358.60374	448.76659	1770.34988	-246.44634	487.0594	1787.63611	-316.6713	444.6344	1679.10828	-323.49953	130.8179	1417.91168	-294.69452	126.88092	1482.36282	-243.17762	127.97354	1418.13385	-323.75332	135.18387	1791.79169	-251.48211	125.13747	1806.60263	-293.94049	124.55491	1732.89856	-245.9351	1152.3732	1527.47421	-352.91206	1558.73474	274.39276
